<?xml version="1.0" encoding="UTF-8"?>
<!DOCTYPE svg PUBLIC "-//W3C//DTD SVG 1.1//EN" "http://www.w3.org/Graphics/SVG/1.1/DTD/svg11.dtd">
<svg xmlns="http://www.w3.org/2000/svg" version="1.1" width="252px" height="127px" style="shape-rendering:geometricPrecision; text-rendering:geometricPrecision; image-rendering:optimizeQuality; fill-rule:evenodd; clip-rule:evenodd" xmlns:xlink="http://www.w3.org/1999/xlink">
<g><path style="opacity:0.967" fill="#00a658" d="M 188.5,-0.5 C 197.167,-0.5 205.833,-0.5 214.5,-0.5C 222.029,0.600758 229.696,1.76743 237.5,3C 242.03,3.87945 246.363,5.21278 250.5,7C 213.308,16.1034 178.975,31.2701 147.5,52.5C 144.346,53.0946 141.346,53.0946 138.5,52.5C 138.142,55.2666 137.475,57.9333 136.5,60.5C 135.5,61.1667 134.5,61.8333 133.5,62.5C 133.46,59.1194 133.793,55.7861 134.5,52.5C 133.325,52.281 132.325,52.6143 131.5,53.5C 130.855,56.2283 130.021,58.8949 129,61.5C 127.989,62.3366 126.822,62.67 125.5,62.5C 125.959,59.1226 126.626,55.7893 127.5,52.5C 126.167,52.5 124.833,52.5 123.5,52.5C 122.81,56.4896 122.643,60.4896 123,64.5C 125.302,65.1452 127.468,65.4785 129.5,65.5C 108.758,82.5053 92.0913,102.172 79.5,124.5C 83.2371,103.956 89.5705,84.2898 98.5,65.5C 99.5,65.5 100.5,65.5 101.5,65.5C 101.421,62.7294 101.921,60.0627 103,57.5C 104.11,55.9632 105.61,55.2965 107.5,55.5C 107.715,53.8212 107.048,52.8212 105.5,52.5C 115.852,32.9793 130.519,17.4793 149.5,6C 162.537,3.16041 175.537,0.99374 188.5,-0.5 Z"/></g>
<g><path style="opacity:0.963" fill="#d96537" d="M 100.5,52.5 C 99.8902,53.391 99.5569,54.391 99.5,55.5C 98.6618,55.8417 98.3284,56.5084 98.5,57.5C 97.5,58.8333 96.5,60.1667 95.5,61.5C 95.5,60.5 95.5,59.5 95.5,58.5C 96.404,57.791 96.7373,56.791 96.5,55.5C 93.9407,55.1984 91.6074,55.5318 89.5,56.5C 90.1667,58.5 90.8333,60.5 91.5,62.5C 89.8561,62.7135 88.3561,62.3802 87,61.5C 85.5056,53.8265 88.6722,50.4931 96.5,51.5C 96.5,50.5 96.5,49.5 96.5,48.5C 86.0116,47.4874 81.5116,52.154 83,62.5C 85.8966,65.2309 89.3966,66.2309 93.5,65.5C 90.3784,73.363 87.545,81.363 85,89.5C 83.5139,77.2208 80.0139,65.5541 74.5,54.5C 75.0431,54.44 75.3764,54.1067 75.5,53.5C 74.675,52.6143 73.675,52.281 72.5,52.5C 64.5853,42.446 54.252,36.2793 41.5,34C 34.5105,33.1006 27.5105,32.2672 20.5,31.5C 56.4887,12.0565 94.8221,4.88984 135.5,10C 121.733,22.5852 110.066,36.7519 100.5,52.5 Z"/></g>
<g><path style="opacity:0.856" fill="#37393c" d="M 17.5,46.5 C 18.5,46.5 19.5,46.5 20.5,46.5C 20.6427,48.2624 20.3094,49.9291 19.5,51.5C 21.4233,52.3078 23.4233,52.8078 25.5,53C 26.439,56.8537 26.1057,60.687 24.5,64.5C 23.5,65.8333 22.5,65.8333 21.5,64.5C 22.802,61.2921 23.4687,57.9588 23.5,54.5C 21.6096,54.2965 20.1096,54.9632 19,56.5C 18.0797,59.1013 17.413,61.7679 17,64.5C 15.9505,65.5171 14.7839,65.6838 13.5,65C 15.4043,58.9802 16.7377,52.8135 17.5,46.5 Z"/></g>
<g><path style="opacity:0.857" fill="#37383c" d="M 44.5,46.5 C 45.5,46.5 46.5,46.5 47.5,46.5C 46.788,49.8754 46.288,53.2088 46,56.5C 47.7106,53.4203 50.2106,52.2536 53.5,53C 51.4429,54.7194 49.7763,56.7194 48.5,59C 49.2364,61.1394 50.2364,63.1394 51.5,65C 51,65.1667 50.5,65.3333 50,65.5C 48.0559,64.3125 46.5559,62.6458 45.5,60.5C 44.7564,61.9905 44.0897,63.4905 43.5,65C 42.5,65.6667 41.5,65.6667 40.5,65C 42.3805,58.975 43.7138,52.8083 44.5,46.5 Z"/></g>
<g><path style="opacity:0.94" fill="#37393b" d="M 188.5,46.5 C 189.833,46.5 191.167,46.5 192.5,46.5C 191.372,52.8088 190.372,59.1421 189.5,65.5C 180.752,68.393 177.252,65.393 179,56.5C 180.45,52.3288 183.117,50.9954 187,52.5C 187.813,50.5643 188.313,48.5643 188.5,46.5 Z M 184.5,55.5 C 186.923,57.6576 186.756,59.991 184,62.5C 182.266,60.1372 182.433,57.8039 184.5,55.5 Z"/></g>
<g><path style="opacity:0.887" fill="#37383b" d="M 3.5,48.5 C 6.77659,48.2161 9.94325,48.5495 13,49.5C 12.0017,54.1431 11.6683,58.8098 12,63.5C 8.4172,65.2902 4.58387,65.9569 0.5,65.5C 1.11443,59.7616 2.11443,54.095 3.5,48.5 Z M 5.5,50.5 C 7.16667,50.5 8.83333,50.5 10.5,50.5C 10.8383,54.1507 9.1716,55.8174 5.5,55.5C 5.5,53.8333 5.5,52.1667 5.5,50.5 Z M 4.5,57.5 C 8.90902,56.899 10.2424,58.5657 8.5,62.5C 6.92908,63.3094 5.26241,63.6427 3.5,63.5C 3.83333,61.5 4.16667,59.5 4.5,57.5 Z"/></g>
<g><path style="opacity:1" fill="#433c3b" d="M 89.5,56.5 C 92.0821,56.0254 94.0821,56.6921 95.5,58.5C 95.5,59.5 95.5,60.5 95.5,61.5C 95.7709,63.3797 95.1042,64.713 93.5,65.5C 89.3966,66.2309 85.8966,65.2309 83,62.5C 81.5116,52.154 86.0116,47.4874 96.5,48.5C 96.5,49.5 96.5,50.5 96.5,51.5C 88.6722,50.4931 85.5056,53.8265 87,61.5C 88.3561,62.3802 89.8561,62.7135 91.5,62.5C 90.8333,60.5 90.1667,58.5 89.5,56.5 Z"/></g>
<g><path style="opacity:0.937" fill="#37383b" d="M 159.5,48.5 C 160.833,48.5 162.167,48.5 163.5,48.5C 162.833,52.8333 162.167,57.1667 161.5,61.5C 163.167,61.5 164.833,61.5 166.5,61.5C 166.5,62.8333 166.5,64.1667 166.5,65.5C 162.818,65.6653 159.152,65.4986 155.5,65C 156.894,59.5323 158.228,54.0323 159.5,48.5 Z"/></g>
<g><path style="opacity:0.926" fill="#37383b" d="M 172.5,49.5 C 173.5,49.5 174.5,49.5 175.5,49.5C 175.5,50.5 175.5,51.5 175.5,52.5C 176.675,52.281 177.675,52.6143 178.5,53.5C 177.68,55.1112 176.346,55.7778 174.5,55.5C 174.007,57.8056 173.674,60.139 173.5,62.5C 174.5,62.5 175.5,62.5 176.5,62.5C 176.5,63.5 176.5,64.5 176.5,65.5C 168.275,66.7699 166.275,63.6033 170.5,56C 169.692,55.6924 169.025,55.1924 168.5,54.5C 170.207,53.1274 171.54,51.4607 172.5,49.5 Z"/></g>
<g><path style="opacity:0.879" fill="#36383b" d="M 31.5,52.5 C 34.3467,52.7824 37.0134,52.7824 39.5,52.5C 39.8333,53 40.1667,53.5 40.5,54C 39.3809,57.7611 38.7143,61.5945 38.5,65.5C 37.1779,65.67 36.0113,65.3366 35,64.5C 33,67.1667 31,67.1667 29,64.5C 27.888,60.0186 28.7213,56.0186 31.5,52.5 Z M 33.5,54.5 C 34.5,54.5 35.5,54.5 36.5,54.5C 37.3403,58.5393 36.007,61.5393 32.5,63.5C 31.2801,63.1131 30.6135,62.2798 30.5,61C 31.0304,58.5568 32.0304,56.3901 33.5,54.5 Z"/></g>
<g><path style="opacity:0.898" fill="#37393c" d="M 56.5,52.5 C 63.5027,51.6727 66.0027,54.6727 64,61.5C 61.6745,65.5099 58.3412,66.5099 54,64.5C 52.2869,60.0132 53.1202,56.0132 56.5,52.5 Z M 58.5,54.5 C 59.5,54.5 60.5,54.5 61.5,54.5C 61.6633,56.8568 61.4966,59.1902 61,61.5C 58.3535,64.3614 56.5201,63.8614 55.5,60C 56.1242,57.9149 57.1242,56.0816 58.5,54.5 Z"/></g>
<g><path style="opacity:0.848" fill="#38393c" d="M 72.5,52.5 C 73.675,52.281 74.675,52.6143 75.5,53.5C 75.3764,54.1067 75.0431,54.44 74.5,54.5C 72.9826,54.5106 71.8159,55.1772 71,56.5C 70.1656,59.1724 69.3323,61.839 68.5,64.5C 67.635,65.5827 66.635,65.7494 65.5,65C 66.5599,61.2076 67.5599,57.3743 68.5,53.5C 69.8605,53.2124 71.1938,52.879 72.5,52.5 Z"/></g>
<g><path style="opacity:0.96" fill="#363a3c" d="M 100.5,52.5 C 102.167,52.5 103.833,52.5 105.5,52.5C 107.048,52.8212 107.715,53.8212 107.5,55.5C 105.61,55.2965 104.11,55.9632 103,57.5C 101.921,60.0627 101.421,62.7294 101.5,65.5C 100.5,65.5 99.5,65.5 98.5,65.5C 98.0139,63.0483 98.0139,60.3817 98.5,57.5C 99.3382,57.1583 99.6716,56.4916 99.5,55.5C 99.5569,54.391 99.8902,53.391 100.5,52.5 Z"/></g>
<g><path style="opacity:1" fill="#353e3d" d="M 112.5,52.5 C 117.192,51.4991 119.525,53.3325 119.5,58C 119.862,62.6408 117.695,65.1408 113,65.5C 109.689,65.1865 108.189,63.3532 108.5,60C 108.43,56.6335 109.763,54.1335 112.5,52.5 Z"/></g>
<g><path style="opacity:1" fill="#35403d" d="M 133.5,62.5 C 133.306,64.9118 131.973,65.9118 129.5,65.5C 127.468,65.4785 125.302,65.1452 123,64.5C 122.643,60.4896 122.81,56.4896 123.5,52.5C 124.833,52.5 126.167,52.5 127.5,52.5C 126.626,55.7893 125.959,59.1226 125.5,62.5C 126.822,62.67 127.989,62.3366 129,61.5C 130.021,58.8949 130.855,56.2283 131.5,53.5C 132.325,52.6143 133.325,52.281 134.5,52.5C 133.793,55.7861 133.46,59.1194 133.5,62.5 Z"/></g>
<g><path style="opacity:0.934" fill="#36393c" d="M 147.5,52.5 C 149.984,58.7432 148.317,63.4098 142.5,66.5C 141.833,66.1667 141.167,65.8333 140.5,65.5C 139.682,67.1083 139.015,68.7749 138.5,70.5C 137.311,71.4287 135.978,71.762 134.5,71.5C 134.911,67.7785 135.578,64.1119 136.5,60.5C 137.475,57.9333 138.142,55.2666 138.5,52.5C 141.346,53.0946 144.346,53.0946 147.5,52.5 Z M 142.5,55.5 C 144.923,57.6576 144.756,59.991 142,62.5C 140.266,60.1372 140.433,57.8039 142.5,55.5 Z"/></g>
<g><path style="opacity:1" fill="#7d4c39" d="M 89.5,56.5 C 91.6074,55.5318 93.9407,55.1984 96.5,55.5C 96.7373,56.791 96.404,57.791 95.5,58.5C 94.0821,56.6921 92.0821,56.0254 89.5,56.5 Z"/></g>
<g><path style="opacity:1" fill="#0b9b56" d="M 113.5,55.5 C 114.5,55.5 115.5,55.5 116.5,55.5C 117.47,59.9315 115.803,62.2648 111.5,62.5C 111.166,59.812 111.832,57.4786 113.5,55.5 Z"/></g>
</svg>
